%FSLAX34Y34*%
%MOMM*%
%LNCOPPER_TOP*%
G71*
G01*
%ADD10C, 2.500*%
%ADD11C, 2.000*%
%LPD*%
X463900Y214100D02*
G54D10*
D03*
X413900Y214100D02*
G54D10*
D03*
X363900Y214100D02*
G54D10*
D03*
X313900Y214100D02*
G54D10*
D03*
X263900Y214100D02*
G54D10*
D03*
X213900Y214100D02*
G54D10*
D03*
X163900Y214100D02*
G54D10*
D03*
X113900Y214100D02*
G54D10*
D03*
X63900Y214100D02*
G54D10*
D03*
X449200Y674100D02*
G54D11*
D03*
X423800Y674100D02*
G54D11*
D03*
X398400Y674100D02*
G54D11*
D03*
X373000Y674100D02*
G54D11*
D03*
X347600Y674100D02*
G54D11*
D03*
X322200Y674100D02*
G54D11*
D03*
X296800Y674100D02*
G54D11*
D03*
X271400Y674100D02*
G54D11*
D03*
X271400Y674100D02*
G54D11*
D03*
X347600Y674100D02*
G54D11*
D03*
X398400Y674100D02*
G54D11*
D03*
X423800Y674100D02*
G54D11*
D03*
X449200Y674100D02*
G54D11*
D03*
X652400Y674100D02*
G54D11*
D03*
X728600Y674100D02*
G54D11*
D03*
X703200Y674100D02*
G54D11*
D03*
X677800Y674100D02*
G54D11*
D03*
X652400Y674100D02*
G54D11*
D03*
X627000Y674100D02*
G54D11*
D03*
X601600Y674100D02*
G54D11*
D03*
X576200Y674100D02*
G54D11*
D03*
X296800Y674100D02*
G54D11*
D03*
X463900Y934100D02*
G54D10*
D03*
X413900Y934100D02*
G54D10*
D03*
X363900Y934100D02*
G54D10*
D03*
X313900Y934100D02*
G54D10*
D03*
X263900Y934100D02*
G54D10*
D03*
X213900Y934100D02*
G54D10*
D03*
X163900Y934100D02*
G54D10*
D03*
X113900Y934100D02*
G54D10*
D03*
X63900Y934100D02*
G54D10*
D03*
X965500Y214100D02*
G54D10*
D03*
X915500Y214100D02*
G54D10*
D03*
X865500Y214100D02*
G54D10*
D03*
X815500Y214100D02*
G54D10*
D03*
X765500Y214100D02*
G54D10*
D03*
X715500Y214100D02*
G54D10*
D03*
X665500Y214100D02*
G54D10*
D03*
X615500Y214100D02*
G54D10*
D03*
X565500Y214100D02*
G54D10*
D03*
X965500Y934100D02*
G54D10*
D03*
X915500Y934100D02*
G54D10*
D03*
X865500Y934100D02*
G54D10*
D03*
X815500Y934100D02*
G54D10*
D03*
X765500Y934100D02*
G54D10*
D03*
X715500Y934100D02*
G54D10*
D03*
X665500Y934100D02*
G54D10*
D03*
X615500Y934100D02*
G54D10*
D03*
X565500Y934100D02*
G54D10*
D03*
M02*
