; Drill file
; Format: 2.4 (00.0000)
M48
INCH
T01C0.0394
T02C0.0472
T03C0.1181
%
G05
G90
T01
X010690Y026540
X011690Y026540
X012690Y026540
X013690Y026540
X014690Y026540
X015690Y026540
X016690Y026540
X017690Y026540
X022690Y026540
X023690Y026540
X024690Y026540
X025690Y026540
X026690Y026540
X027690Y026540
X028690Y026540
T02
X002520Y008430
X004480Y008430
X006450Y008430
X008420Y008430
X010390Y008430
X012360Y008430
X014330Y008430
X016300Y008430
X018260Y008430
X022260Y008430
X024230Y008430
X026200Y008430
X028170Y008430
X030140Y008430
X032110Y008430
X034070Y008430
X036040Y008430
X038010Y008430
X038010Y036780
X036040Y036780
X034070Y036780
X032110Y036780
X030140Y036780
X028170Y036780
X026200Y036780
X024230Y036780
X022260Y036780
X018260Y036780
X016300Y036780
X014330Y036780
X012360Y036780
X010390Y036780
X008420Y036780
X006450Y036780
X004480Y036780
X002520Y036780
T03
X007610Y011780
X007610Y033430
X033240Y033430
X033240Y011780
M30
