%FSLAX34Y34*%
%MOMM*%
%LNSILK_BOTTOM*%
G71*
G01*
%ADD10C, 0.150*%
%LPD*%
G54D10*
X461900Y680500D02*
X455600Y686800D01*
X442800Y686800D01*
X436500Y680500D01*
X436500Y667700D01*
X442800Y661400D01*
X455600Y661400D01*
X461900Y667700D01*
X461900Y680500D01*
G54D10*
X436500Y680500D02*
X430200Y686800D01*
X417400Y686800D01*
X411100Y680500D01*
X411100Y667700D01*
X417400Y661400D01*
X430200Y661400D01*
X436500Y667700D01*
X436500Y680500D01*
G54D10*
X411100Y680500D02*
X404800Y686800D01*
X392000Y686800D01*
X385700Y680500D01*
X385700Y667700D01*
X392000Y661400D01*
X404800Y661400D01*
X411100Y667700D01*
X411100Y680500D01*
G54D10*
X385700Y680500D02*
X379400Y686800D01*
X366600Y686800D01*
X360300Y680500D01*
X360300Y667700D01*
X366600Y661400D01*
X379400Y661400D01*
X385700Y667700D01*
X385700Y680500D01*
G54D10*
X360300Y680500D02*
X354000Y686800D01*
X341200Y686800D01*
X334900Y680500D01*
X334900Y667700D01*
X341200Y661400D01*
X354000Y661400D01*
X360300Y667700D01*
X360300Y680500D01*
G54D10*
X334900Y680500D02*
X328600Y686800D01*
X315800Y686800D01*
X309500Y680500D01*
X309500Y667700D01*
X315800Y661400D01*
X328600Y661400D01*
X334900Y667700D01*
X334900Y680500D01*
G54D10*
X309500Y680500D02*
X303200Y686800D01*
X290400Y686800D01*
X284100Y680500D01*
X284100Y667700D01*
X290400Y661400D01*
X303200Y661400D01*
X309500Y667700D01*
X309500Y680500D01*
G54D10*
X284100Y680500D02*
X277800Y686800D01*
X265000Y686800D01*
X258700Y680500D01*
X258700Y667700D01*
X265000Y661400D01*
X277800Y661400D01*
X284100Y667700D01*
X284100Y680500D01*
G54D10*
X741300Y680500D02*
X735000Y686800D01*
X722200Y686800D01*
X715900Y680500D01*
X715900Y667700D01*
X722200Y661400D01*
X735000Y661400D01*
X741300Y667700D01*
X741300Y680500D01*
G54D10*
X715900Y680500D02*
X709600Y686800D01*
X696800Y686800D01*
X690500Y680500D01*
X690500Y667700D01*
X696800Y661400D01*
X709600Y661400D01*
X715900Y667700D01*
X715900Y680500D01*
G54D10*
X690500Y680500D02*
X684200Y686800D01*
X671400Y686800D01*
X665100Y680500D01*
X665100Y667700D01*
X671400Y661400D01*
X684200Y661400D01*
X690500Y667700D01*
X690500Y680500D01*
G54D10*
X665100Y680500D02*
X658800Y686800D01*
X646000Y686800D01*
X639700Y680500D01*
X639700Y667700D01*
X646000Y661400D01*
X658800Y661400D01*
X665100Y667700D01*
X665100Y680500D01*
G54D10*
X639700Y680500D02*
X633400Y686800D01*
X620600Y686800D01*
X614300Y680500D01*
X614300Y667700D01*
X620600Y661400D01*
X633400Y661400D01*
X639700Y667700D01*
X639700Y680500D01*
G54D10*
X614300Y680500D02*
X608000Y686800D01*
X595200Y686800D01*
X588900Y680500D01*
X588900Y667700D01*
X595200Y661400D01*
X608000Y661400D01*
X614300Y667700D01*
X614300Y680500D01*
G54D10*
X588900Y680500D02*
X582600Y686800D01*
X569800Y686800D01*
X563500Y680500D01*
X563500Y667700D01*
X569800Y661400D01*
X582600Y661400D01*
X588900Y667700D01*
X588900Y680500D01*
G54D10*
X339000Y259100D02*
X489000Y259100D01*
X488800Y167200D01*
X339000Y167200D01*
X339000Y259100D01*
G54D10*
X189000Y259100D02*
X339000Y259100D01*
X338800Y167200D01*
X189000Y167200D01*
X189000Y259100D01*
G54D10*
X39000Y259100D02*
X189000Y259100D01*
X188800Y167200D01*
X39000Y167200D01*
X39000Y259100D01*
G54D10*
X339000Y889100D02*
X489000Y889100D01*
X488800Y981000D01*
X339000Y981000D01*
X339000Y889100D01*
G54D10*
X189000Y889100D02*
X339000Y889100D01*
X338800Y981000D01*
X189000Y981000D01*
X189000Y889100D01*
G54D10*
X39000Y889100D02*
X189000Y889100D01*
X188800Y981000D01*
X39000Y981000D01*
X39000Y889100D01*
G54D10*
X840600Y259100D02*
X990600Y259100D01*
X990400Y167200D01*
X840600Y167200D01*
X840600Y259100D01*
G54D10*
X690600Y259100D02*
X840600Y259100D01*
X840400Y167200D01*
X690600Y167200D01*
X690600Y259100D01*
G54D10*
X540600Y259100D02*
X690600Y259100D01*
X690400Y167200D01*
X540600Y167200D01*
X540600Y259100D01*
G54D10*
X840600Y889100D02*
X990600Y889100D01*
X990400Y981000D01*
X840600Y981000D01*
X840600Y889100D01*
G54D10*
X690600Y889100D02*
X840600Y889100D01*
X840400Y981000D01*
X690600Y981000D01*
X690600Y889100D01*
G54D10*
X540600Y889100D02*
X690600Y889100D01*
X690400Y981000D01*
X540600Y981000D01*
X540600Y889100D01*
M02*
